<svg width="20" height="21" viewBox="0 0 20 21" fill="none" xmlns="http://www.w3.org/2000/svg">
<path d="M3.85 15.4182C4.7 14.7682 5.65 14.2559 6.7 13.8812C7.75 13.5066 8.85 13.3189 10 13.3182C11.15 13.3176 12.25 13.5052 13.3 13.8812C14.35 14.2572 15.3 14.7696 16.15 15.4182C16.7333 14.7349 17.1877 13.9599 17.513 13.0932C17.8383 12.2266 18.0007 11.3016 18 10.3182C18 8.10157 17.221 6.2139 15.663 4.65524C14.105 3.09657 12.2173 2.31757 10 2.31824C7.78267 2.3189 5.895 3.09824 4.337 4.65624C2.779 6.21424 2 8.10157 2 10.3182C2 11.3016 2.16267 12.2266 2.488 13.0932C2.81333 13.9599 3.26733 14.7349 3.85 15.4182ZM10 11.3182C9.01667 11.3182 8.18733 10.9809 7.512 10.3062C6.83667 9.63157 6.49933 8.80224 6.5 7.81824C6.50067 6.83424 6.83833 6.0049 7.513 5.33024C8.18767 4.65557 9.01667 4.31824 10 4.31824C10.9833 4.31824 11.8127 4.6559 12.488 5.33124C13.1633 6.00657 13.5007 6.83557 13.5 7.81824C13.4993 8.8009 13.162 9.63024 12.488 10.3062C11.814 10.9822 10.9847 11.3196 10 11.3182ZM10 20.3182C8.61667 20.3182 7.31667 20.0556 6.1 19.5302C4.88333 19.0049 3.825 18.2926 2.925 17.3932C2.025 16.4939 1.31267 15.4356 0.788 14.2182C0.263333 13.0009 0.000666502 11.7009 -1.64689e-07 10.3182C-0.000666831 8.93557 0.262 7.63557 0.788 6.41824C1.314 5.2009 2.02633 4.14257 2.925 3.24324C3.82367 2.3439 4.882 1.63157 6.1 1.10624C7.318 0.580904 8.618 0.318237 10 0.318237C11.382 0.318237 12.682 0.580904 13.9 1.10624C15.118 1.63157 16.1763 2.3439 17.075 3.24324C17.9737 4.14257 18.6863 5.2009 19.213 6.41824C19.7397 7.63557 20.002 8.93557 20 10.3182C19.998 11.7009 19.7353 13.0009 19.212 14.2182C18.6887 15.4356 17.9763 16.4939 17.075 17.3932C16.1737 18.2926 15.1153 19.0052 13.9 19.5312C12.6847 20.0572 11.3847 20.3196 10 20.3182Z" fill="white"/>
</svg>
