<svg width="20" height="23" viewBox="0 0 20 23" fill="none" xmlns="http://www.w3.org/2000/svg">
<path d="M9.99996 6.4C9.73329 6.06667 9.38885 5.80578 8.96663 5.61733C8.5444 5.42889 8.08885 5.33422 7.59996 5.33333C6.79996 5.33333 6.11107 5.62222 5.53329 6.2C4.95551 6.77778 4.66663 7.46667 4.66663 8.26667C4.66663 8.68889 4.72752 9.07778 4.84929 9.43333C4.97107 9.78889 5.22129 10.2111 5.59996 10.7C5.91107 11.1 6.3444 11.5778 6.89996 12.1333C7.45552 12.6889 8.16663 13.3667 9.03329 14.1667C9.16663 14.3 9.3164 14.4 9.48263 14.4667C9.64885 14.5333 9.82129 14.5667 9.99996 14.5667C10.1786 14.5667 10.3506 14.5333 10.516 14.4667C10.6813 14.4 10.8315 14.3 10.9666 14.1667C11.8111 13.3889 12.5111 12.728 13.0666 12.184C13.6222 11.64 14.0555 11.1564 14.3666 10.7333C14.7444 10.2444 15 9.81644 15.1333 9.44933C15.2666 9.08222 15.3333 8.688 15.3333 8.26667C15.3333 7.46667 15.0444 6.77778 14.4666 6.2C13.8888 5.62222 13.2 5.33333 12.4 5.33333C11.9333 5.33333 11.4831 5.42756 11.0493 5.616C10.6155 5.80444 10.2657 6.06578 9.99996 6.4ZM9.99996 20L4.39996 22.4C3.51107 22.7778 2.66663 22.7058 1.86663 22.184C1.06663 21.6622 0.666626 20.9231 0.666626 19.9667V2.66667C0.666626 1.93333 0.927959 1.30578 1.45063 0.784C1.97329 0.262222 2.60085 0.000888889 3.33329 0H16.6666C17.4 0 18.028 0.261333 18.5506 0.784C19.0733 1.30667 19.3342 1.93422 19.3333 2.66667V19.9667C19.3333 20.9222 18.9333 21.6613 18.1333 22.184C17.3333 22.7067 16.4888 22.7787 15.6 22.4L9.99996 20Z" fill="#FFB700"/>
</svg>
