<svg width="28" height="24" viewBox="0 0 28 24" fill="none" xmlns="http://www.w3.org/2000/svg">
<path d="M12.7334 15.3333L18.2667 11.8C18.6667 11.5333 18.8667 11.1556 18.8667 10.6667C18.8667 10.1778 18.6667 9.8 18.2667 9.53333L12.7334 6C12.2889 5.71111 11.8334 5.68889 11.3667 5.93333C10.9 6.17778 10.6667 6.56667 10.6667 7.1V14.2333C10.6667 14.7667 10.9 15.1556 11.3667 15.4C11.8334 15.6444 12.2889 15.6222 12.7334 15.3333ZM3.33335 21.3333C2.60002 21.3333 1.97246 21.0724 1.45069 20.5507C0.928909 20.0289 0.667576 19.4009 0.666687 18.6667V2.66667C0.666687 1.93333 0.92802 1.30578 1.45069 0.784C1.97335 0.262222 2.60091 0.000888889 3.33335 0H24.6667C25.4 0 26.028 0.261333 26.5507 0.784C27.0734 1.30667 27.3342 1.93422 27.3334 2.66667V18.6667C27.3334 19.4 27.0725 20.028 26.5507 20.5507C26.0289 21.0733 25.4009 21.3342 24.6667 21.3333H19.3334V22.6667C19.3334 23.0444 19.2054 23.3613 18.9494 23.6173C18.6934 23.8733 18.3769 24.0009 18 24H10C9.62224 24 9.3058 23.872 9.05069 23.616C8.79558 23.36 8.66758 23.0436 8.66669 22.6667V21.3333H3.33335Z" fill="#FFB700"/>
</svg>
