<svg width="16" height="21" viewBox="0 0 16 21" fill="none" xmlns="http://www.w3.org/2000/svg">
<path d="M1 17.5775C0.71667 17.5775 0.479337 17.4815 0.288004 17.2895C0.0966702 17.0975 0.000670115 16.8602 3.44827e-06 16.5775C-0.000663218 16.2949 0.0953369 16.0575 0.288004 15.8655C0.48067 15.6735 0.718003 15.5775 1 15.5775H2V8.57752C2 7.19418 2.41667 5.96518 3.25 4.89052C4.08334 3.81585 5.16667 3.11152 6.5 2.77752V2.07752C6.5 1.66085 6.646 1.30685 6.938 1.01552C7.23 0.724184 7.584 0.578184 8 0.577517C8.416 0.57685 8.77034 0.72285 9.063 1.01552C9.35567 1.30818 9.50134 1.66218 9.5 2.07752V2.77752C10.8333 3.11085 11.9167 3.81518 12.75 4.89052C13.5833 5.96585 14 7.19485 14 8.57752V15.5775H15C15.2833 15.5775 15.521 15.6735 15.713 15.8655C15.905 16.0575 16.0007 16.2949 16 16.5775C15.9993 16.8602 15.9033 17.0978 15.712 17.2905C15.5207 17.4832 15.2833 17.5788 15 17.5775H1ZM8 20.5775C7.45 20.5775 6.97934 20.3818 6.588 19.9905C6.19667 19.5992 6.00067 19.1282 6 18.5775H10C10 19.1275 9.80434 19.5985 9.413 19.9905C9.02167 20.3825 8.55067 20.5782 8 20.5775Z" fill="white"/>
</svg>
