<svg width="20" height="23" viewBox="0 0 20 23" fill="none" xmlns="http://www.w3.org/2000/svg">
<path d="M9.99996 6.55509C9.73329 6.22176 9.38885 5.96087 8.96663 5.77242C8.5444 5.58398 8.08885 5.48931 7.59996 5.48842C6.79996 5.48842 6.11107 5.77731 5.53329 6.35509C4.95551 6.93287 4.66663 7.62176 4.66663 8.42176C4.66663 8.84398 4.72752 9.23287 4.84929 9.58842C4.97107 9.94398 5.22129 10.3662 5.59996 10.8551C5.91107 11.2551 6.3444 11.7329 6.89996 12.2884C7.45552 12.844 8.16663 13.5218 9.03329 14.3218C9.16663 14.4551 9.3164 14.5551 9.48263 14.6218C9.64885 14.6884 9.82129 14.7218 9.99996 14.7218C10.1786 14.7218 10.3506 14.6884 10.516 14.6218C10.6813 14.5551 10.8315 14.4551 10.9666 14.3218C11.8111 13.544 12.5111 12.8831 13.0666 12.3391C13.6222 11.7951 14.0555 11.3115 14.3666 10.8884C14.7444 10.3995 15 9.97153 15.1333 9.60442C15.2666 9.23731 15.3333 8.84309 15.3333 8.42176C15.3333 7.62176 15.0444 6.93287 14.4666 6.35509C13.8888 5.77731 13.2 5.48842 12.4 5.48842C11.9333 5.48842 11.4831 5.58265 11.0493 5.77109C10.6155 5.95953 10.2657 6.22087 9.99996 6.55509ZM9.99996 20.1551L4.39996 22.5551C3.51107 22.9329 2.66663 22.8609 1.86663 22.3391C1.06663 21.8173 0.666626 21.0782 0.666626 20.1218V2.82176C0.666626 2.08842 0.927959 1.46087 1.45063 0.93909C1.97329 0.417313 2.60085 0.155979 3.33329 0.15509H16.6666C17.4 0.15509 18.028 0.416424 18.5506 0.93909C19.0733 1.46176 19.3342 2.08931 19.3333 2.82176V20.1218C19.3333 21.0773 18.9333 21.8164 18.1333 22.3391C17.3333 22.8618 16.4888 22.9338 15.6 22.5551L9.99996 20.1551Z" fill="white"/>
</svg>
