<svg width="22" height="24" viewBox="0 0 22 24" fill="none" xmlns="http://www.w3.org/2000/svg">
<path d="M0.333313 21.3333V9.33332C0.333313 8.9111 0.427979 8.5111 0.617313 8.13332C0.806646 7.75555 1.06754 7.44443 1.39998 7.19999L9.39998 1.19999C9.86665 0.844434 10.4 0.666656 11 0.666656C11.6 0.666656 12.1333 0.844434 12.6 1.19999L20.6 7.19999C20.9333 7.44443 21.1946 7.75555 21.384 8.13332C21.5733 8.5111 21.6675 8.9111 21.6666 9.33332V21.3333C21.6666 22.0667 21.4053 22.6947 20.8826 23.2173C20.36 23.74 19.7324 24.0009 19 24H15C14.6222 24 14.3058 23.872 14.0506 23.616C13.7955 23.36 13.6675 23.0435 13.6666 22.6667V16C13.6666 15.6222 13.5386 15.3058 13.2826 15.0507C13.0266 14.7955 12.7102 14.6675 12.3333 14.6667H9.66665C9.28887 14.6667 8.97242 14.7947 8.71731 15.0507C8.4622 15.3067 8.3342 15.6231 8.33331 16V22.6667C8.33331 23.0444 8.20531 23.3613 7.94931 23.6173C7.69331 23.8733 7.37687 24.0009 6.99998 24H2.99998C2.26665 24 1.63909 23.7391 1.11731 23.2173C0.595535 22.6955 0.334202 22.0675 0.333313 21.3333Z" fill="white"/>
</svg>
