<svg width="22" height="25" viewBox="0 0 22 25" fill="none" xmlns="http://www.w3.org/2000/svg">
<path d="M0.333374 21.4884V9.48844C0.333374 9.06622 0.42804 8.66622 0.617374 8.28844C0.806707 7.91067 1.0676 7.59955 1.40004 7.35511L9.40004 1.35511C9.86671 0.999555 10.4 0.821777 11 0.821777C11.6 0.821777 12.1334 0.999555 12.6 1.35511L20.6 7.35511C20.9334 7.59955 21.1947 7.91067 21.384 8.28844C21.5734 8.66622 21.6676 9.06622 21.6667 9.48844V21.4884C21.6667 22.2218 21.4054 22.8498 20.8827 23.3724C20.36 23.8951 19.7325 24.156 19 24.1551H15C14.6223 24.1551 14.3058 24.0271 14.0507 23.7711C13.7956 23.5151 13.6676 23.1987 13.6667 22.8218V16.1551C13.6667 15.7773 13.5387 15.4609 13.2827 15.2058C13.0267 14.9507 12.7103 14.8227 12.3334 14.8218H9.66671C9.28893 14.8218 8.97248 14.9498 8.71737 15.2058C8.46226 15.4618 8.33426 15.7782 8.33337 16.1551V22.8218C8.33337 23.1996 8.20537 23.5164 7.94937 23.7724C7.69337 24.0284 7.37693 24.156 7.00004 24.1551H3.00004C2.26671 24.1551 1.63915 23.8942 1.11737 23.3724C0.595596 22.8507 0.334263 22.2227 0.333374 21.4884Z" fill="#FFB700"/>
</svg>
