<svg width="28" height="25" viewBox="0 0 28 25" fill="none" xmlns="http://www.w3.org/2000/svg">
<path d="M12.7333 15.4884L18.2666 11.9551C18.6666 11.6884 18.8666 11.3106 18.8666 10.8218C18.8666 10.3329 18.6666 9.95509 18.2666 9.68842L12.7333 6.15509C12.2888 5.8662 11.8333 5.84398 11.3666 6.08842C10.9 6.33287 10.6666 6.72176 10.6666 7.25509V14.3884C10.6666 14.9218 10.9 15.3106 11.3666 15.5551C11.8333 15.7995 12.2888 15.7773 12.7333 15.4884ZM3.33329 21.4884C2.59996 21.4884 1.9724 21.2275 1.45063 20.7058C0.928848 20.184 0.667515 19.556 0.666626 18.8218V2.82176C0.666626 2.08842 0.927959 1.46087 1.45063 0.93909C1.97329 0.417313 2.60085 0.155979 3.33329 0.15509H24.6666C25.4 0.15509 26.028 0.416424 26.5506 0.93909C27.0733 1.46176 27.3342 2.08931 27.3333 2.82176V18.8218C27.3333 19.5551 27.0724 20.1831 26.5506 20.7058C26.0288 21.2284 25.4008 21.4893 24.6666 21.4884H19.3333V22.8218C19.3333 23.1995 19.2053 23.5164 18.9493 23.7724C18.6933 24.0284 18.3768 24.156 18 24.1551H9.99996C9.62218 24.1551 9.30574 24.0271 9.05063 23.7711C8.79552 23.5151 8.66751 23.1986 8.66663 22.8218V21.4884H3.33329Z" fill="white"/>
</svg>
