<svg width="18" height="17" viewBox="0 0 18 17" fill="none" xmlns="http://www.w3.org/2000/svg">
<path d="M7.99991 16.7167C7.71657 16.7167 7.47924 16.6207 7.28791 16.4287C7.09657 16.2367 7.00057 15.9993 6.99991 15.7167V9.71667L1.19991 2.31667C0.949908 1.98334 0.912574 1.63334 1.08791 1.26667C1.26324 0.900008 1.56724 0.716675 1.99991 0.716675H15.9999C16.4332 0.716675 16.7376 0.900008 16.9129 1.26667C17.0882 1.63334 17.0506 1.98334 16.7999 2.31667L10.9999 9.71667V15.7167C10.9999 16 10.9039 16.2377 10.7119 16.4297C10.5199 16.6217 10.2826 16.7173 9.99991 16.7167H7.99991Z" fill="white" fill-opacity="0.8"/>
</svg>
