<svg width="11" height="10" viewBox="0 0 11 10" fill="none" xmlns="http://www.w3.org/2000/svg">
<path d="M0.679197 4.55418L2.6292 6.34168L2.08753 8.83335C2.03336 9.15835 2.1417 9.48335 2.41253 9.64585C2.52086 9.75418 2.68336 9.80835 2.84586 9.80835C2.9542 9.80835 3.06253 9.80835 3.17086 9.75418C3.17086 9.75418 3.22503 9.75418 3.22503 9.70002L5.44586 8.45418L7.6667 9.70002C7.6667 9.70002 7.72086 9.70002 7.72086 9.75418C7.9917 9.86252 8.3167 9.86252 8.53336 9.70002C8.8042 9.53752 8.91253 9.21252 8.85836 8.88752L8.3167 6.39585C8.53336 6.23335 8.85836 5.90835 9.18336 5.58335L10.2125 4.66252L10.2667 4.60835C10.4834 4.39168 10.5375 4.06668 10.4292 3.79585C10.3209 3.52502 10.1042 3.30835 9.7792 3.25418H9.72503L7.1792 2.98335L6.15003 0.654183C6.15003 0.654183 6.15003 0.600016 6.09586 0.600016C6.0417 0.22085 5.77086 0.0583496 5.50003 0.0583496C5.2292 0.0583496 4.95836 0.22085 4.79586 0.491683C4.79586 0.491683 4.79586 0.54585 4.7417 0.54585L3.71253 2.87502L1.1667 3.14585H1.11253C0.841697 3.20002 0.570863 3.41668 0.46253 3.68752C0.408363 4.01252 0.46253 4.33752 0.679197 4.55418Z" fill="#FFB700"/>
</svg>
