<svg width="6" height="11" viewBox="0 0 6 11" fill="none" xmlns="http://www.w3.org/2000/svg">
<path d="M5.7708 0.766938C5.7708 0.626104 5.65813 0.502604 5.52705 0.552979C5.41214 0.597482 5.31584 0.679832 5.25405 0.786438L3.7845 3.31981C3.73371 3.40765 3.66381 3.48295 3.57999 3.54015C3.49617 3.59734 3.40057 3.63496 3.30025 3.65023L0.545337 4.06569C0.082212 4.1361 -0.0797462 4.72002 0.280462 5.01902L2.33338 6.71877C2.52296 6.87585 2.61234 7.12502 2.5663 7.36715L2.02896 10.1865C2.00982 10.2867 2.01937 10.3903 2.0565 10.4853C2.09363 10.5803 2.15684 10.6629 2.23885 10.7236C2.32086 10.7843 2.41834 10.8206 2.52006 10.8283C2.62179 10.836 2.72362 10.8148 2.81384 10.7672L5.40842 9.4011C5.4337 9.38774 5.45952 9.37601 5.48588 9.3659C5.63267 9.31119 5.77134 9.19148 5.77134 9.03386L5.7708 0.766938Z" fill="#FFB700"/>
</svg>
