<svg width="10" height="9" viewBox="0 0 10 9" fill="none" xmlns="http://www.w3.org/2000/svg">
<path d="M8.5 4.42085C8.5 3.72918 8.31667 3.09802 7.95 2.52735C7.58333 1.95668 7.09167 1.52952 6.475 1.24585C6.35 1.18752 6.25833 1.09802 6.2 0.977349C6.14167 0.856683 6.13333 0.733683 6.175 0.60835C6.225 0.475016 6.31467 0.379183 6.444 0.32085C6.57333 0.262516 6.7045 0.262516 6.8375 0.32085C7.64583 0.679183 8.29167 1.22718 8.775 1.96485C9.25833 2.70252 9.5 3.52102 9.5 4.42035C9.5 5.31968 9.25833 6.13852 8.775 6.87685C8.29167 7.61518 7.64583 8.16302 6.8375 8.52035C6.70417 8.57868 6.57283 8.57868 6.4435 8.52035C6.31417 8.46202 6.22467 8.36618 6.175 8.23285C6.13333 8.10785 6.14167 7.98502 6.2 7.86435C6.25833 7.74368 6.35 7.65402 6.475 7.59535C7.09167 7.31202 7.58333 6.88502 7.95 6.31435C8.31667 5.74368 8.5 5.11235 8.5 4.42035M2.5 5.93335H1C0.858333 5.93335 0.739667 5.88535 0.644 5.78935C0.548333 5.69335 0.500333 5.57468 0.5 5.43335V3.43335C0.5 3.29168 0.548 3.17302 0.644 3.07735C0.74 2.98168 0.858667 2.93368 1 2.93335H2.5L4.15 1.28335C4.30833 1.12502 4.48967 1.08952 4.694 1.17685C4.89833 1.26418 5.00033 1.42052 5 1.64585V7.22085C5 7.44585 4.898 7.60218 4.694 7.68985C4.49 7.77752 4.30867 7.74202 4.15 7.58335L2.5 5.93335ZM7.25 4.43335C7.25 4.78335 7.17083 5.11468 7.0125 5.42735C6.85417 5.74002 6.64583 5.99618 6.3875 6.19585C6.30417 6.24585 6.21867 6.24802 6.131 6.20235C6.04333 6.15668 5.99967 6.08368 6 5.98335V2.85835C6 2.75835 6.04383 2.68552 6.1315 2.63985C6.21917 2.59418 6.3045 2.59618 6.3875 2.64585C6.64583 2.85418 6.85417 3.11668 7.0125 3.43335C7.17083 3.75002 7.25 4.08335 7.25 4.43335Z" fill="white" fill-opacity="0.6"/>
</svg>
