<svg width="10" height="10" viewBox="0 0 10 10" fill="none" xmlns="http://www.w3.org/2000/svg">
<path d="M8.5 4.9875C8.5 4.29583 8.31667 3.66467 7.95 3.094C7.58333 2.52333 7.09167 2.09617 6.475 1.8125C6.35 1.75417 6.25833 1.66467 6.2 1.544C6.14167 1.42333 6.13333 1.30033 6.175 1.175C6.225 1.04167 6.31467 0.945833 6.444 0.8875C6.57333 0.829167 6.7045 0.829167 6.8375 0.8875C7.64583 1.24583 8.29167 1.79383 8.775 2.5315C9.25833 3.26917 9.5 4.08767 9.5 4.987C9.5 5.88633 9.25833 6.70517 8.775 7.4435C8.29167 8.18183 7.64583 8.72967 6.8375 9.087C6.70417 9.14533 6.57283 9.14533 6.4435 9.087C6.31417 9.02867 6.22467 8.93283 6.175 8.7995C6.13333 8.6745 6.14167 8.55167 6.2 8.431C6.25833 8.31033 6.35 8.22067 6.475 8.162C7.09167 7.87867 7.58333 7.45167 7.95 6.881C8.31667 6.31033 8.5 5.679 8.5 4.987M2.5 6.5H1C0.858333 6.5 0.739667 6.452 0.644 6.356C0.548333 6.26 0.500333 6.14133 0.5 6V4C0.5 3.85833 0.548 3.73967 0.644 3.644C0.74 3.54833 0.858667 3.50033 1 3.5H2.5L4.15 1.85C4.30833 1.69167 4.48967 1.65617 4.694 1.7435C4.89833 1.83083 5.00033 1.98717 5 2.2125V7.7875C5 8.0125 4.898 8.16883 4.694 8.2565C4.49 8.34417 4.30867 8.30867 4.15 8.15L2.5 6.5ZM7.25 5C7.25 5.35 7.17083 5.68133 7.0125 5.994C6.85417 6.30667 6.64583 6.56283 6.3875 6.7625C6.30417 6.8125 6.21867 6.81467 6.131 6.769C6.04333 6.72333 5.99967 6.65033 6 6.55V3.425C6 3.325 6.04383 3.25217 6.1315 3.2065C6.21917 3.16083 6.3045 3.16283 6.3875 3.2125C6.64583 3.42083 6.85417 3.68333 7.0125 4C7.17083 4.31667 7.25 4.65 7.25 5Z" fill="#FFB700" fill-opacity="0.6"/>
</svg>
